<svg version="1.2" xmlns="http://www.w3.org/2000/svg" viewBox="0 0 2459 703" width="1200" height="343">
	<title>HUG HOME LOGO</title>
	<style>
		tspan { white-space:pre } 
		.t0 { font-size: 86px;fill: #2c2e35;font-weight: bold;font-family: "Forma DJ RThai Display" } 
		.t1 { font-size: 86px;fill: #2c2e35;font-weight: 800;font-family: "L IN ESeed Sans TH" } 
		.t2 { font-size: 163px;fill: #2c2e35;font-weight: bold;font-family: "Forma DJ RThai Display" } 
		.t3 { font-size: 311px;fill: #393e40;font-weight: bold;font-family: "Forma DJ RThai Display" } 
		.t4 { font-size: 154px;fill: #393e40;font-weight: 800;font-family: "L IN ESeed Sans TH" } 
		.t5 { font-size: 138px;fill: #2c2e35;font-family: "L IN ESeed Sans TH" } 
		.s6 { fill: #404042;stroke: #404042;stroke-width: 2 } 
		.s7 { fill: #404042 } 
		.s8 { fill: #da2129 } 
	</style>
	<g id="Layer 1">
		<text id="Forma DJR Thai Display
" style="transform: matrix(1,0,0,1,1179.064,894.512)" >
			<tspan x="0" y="0" class="t0" dx="0 8 8 8 8 8 8 8 8 8 8 8 8 8 8 8 8 8 8 8 8 8 8" >Forma DJR Thai Display
</tspan>
		</text>
		<text id="LINE Seed Sans TH
" style="transform: matrix(1,0,0,1,1179.064,995.618)" >
			<tspan x="0" y="0" class="t1" dx="0 8 8 8 8 8 8 8 8 8 8 8 8 8 8 8 8 8" >LINE Seed Sans TH
</tspan>
		</text>
		<text id="ฮักโฮม
" style="transform: matrix(1,0,0,1,1772.896,-171.511)" >
			<tspan x="0" y="0" class="t2">ฮักโฮม
</tspan>
		</text>
		<g id="&lt;Group&gt;">
			<text id="HugHome
" style="transform: matrix(1,0,0,1,687.736,1444.486)" >
				<tspan x="0" y="0" class="t3" dx="0 28 28 28 28 28 28 28" >HugHome
</tspan>
			</text>
			<text id="ฮักโฮม
" style="transform: matrix(1,0,0,1,1779.504,1222.167)" >
				<tspan x="0" y="0" class="t4">ฮักโฮม
</tspan>
			</text>
		</g>
		<text id="ฮักโฮม
" style="transform: matrix(1,0,0,1,1380.541,-176.753)" >
			<tspan x="0" y="0" class="t5">ฮักโฮม
</tspan>
		</text>
		<g id="&lt;Group&gt;">
			<g id="&lt;Group&gt;">
				<g id="&lt;Group&gt;">
					<g id="&lt;Group&gt;">
						<path id="&lt;Compound Path&gt;" class="s6" d="m696.64 531.68l1.59-106.16-1.59-106.16c0-1.56 1.27-2.8 2.86-2.8h43.88c1.59 0 2.86 1.24 2.86 2.8l-0.96 81.25h96.66l-0.95-81.25c0-1.56 1.27-2.8 2.86-2.8h43.87c1.59 0 2.87 1.24 2.87 2.8l-1.59 106.16 1.59 106.16c0 1.56-1.28 2.8-2.87 2.8h-43.87c-1.59 0-2.86-1.24-2.86-2.8l1.27-95.89h-97.29l1.27 95.89c0 1.56-1.27 2.8-2.86 2.8h-43.88c-1.59 0-2.86-1.24-2.86-2.8z"/>
						<path id="&lt;Compound Path&gt;" class="s6" d="m934.78 475.95v-33.62l-0.63-65.38c0-1.55 1.27-2.8 2.86-2.8h42.6c1.59 0 2.86 1.25 2.86 2.8l-0.95 65.38v33c0 17.44 10.81 28.64 25.12 28.64 17.17 0 35.61-15.56 35.61-49.81v-11.83l-0.64-65.38c0-1.55 1.27-2.8 2.86-2.8h43.24c1.59 0 2.87 1.25 2.87 2.8l-0.96 74.1 0.32 80.63c0 1.56-1.27 2.8-2.86 2.8h-40.38q-2.86 0-2.86-2.8l0.95-17.43c-11.13 14.01-29.89 23.97-52.78 23.97-34.65 0-57.23-23.04-57.23-62.27z"/>
						<path id="&lt;Compound Path&gt;" fill-rule="evenodd" class="s6" d="m1136.68 545.07q0-2.8 2.86-2.8h41.33c1.59 0 2.87 0.93 3.18 2.49 1.91 13.38 13.04 21.17 32.43 21.17 20.67 0 34.98-11.21 34.98-36.43v-18.37c-10.81 14.01-26.71 22.42-47.06 22.42-48.64 0-74.08-35.18-74.08-80.32 0-44.83 27.34-81.26 71.86-81.26 20.34 0 36.24 6.85 47.37 19.62l-0.95-14.64q0-2.8 2.86-2.8h41.97c1.59 0 2.86 1.25 2.86 2.8l-0.64 79.7 0.32 73.48c0 40.47-27.02 66.62-81.08 66.62-42.92 0.62-75.67-16.5-78.21-51.68zm77.9-42.03c23.21 0 35.61-16.19 35.92-48.57 0.32-33.31-12.08-51.68-34.97-51.99-24.16-0.62-36.56 16.81-36.56 48.88 0 34.56 12.71 51.99 35.61 51.68z"/>
						<path id="&lt;Compound Path&gt;" class="s6" d="m1341.44 531.68l1.59-106.16-1.59-106.16c0-1.56 1.27-2.8 2.86-2.8h43.88c1.59 0 2.86 1.24 2.86 2.8l-0.96 81.25h96.66l-0.95-81.25c0-1.56 1.27-2.8 2.86-2.8h43.87c1.59 0 2.87 1.24 2.87 2.8l-1.59 106.16 1.59 106.16c0 1.56-1.28 2.8-2.87 2.8h-43.87c-1.59 0-2.86-1.24-2.86-2.8l1.27-95.89h-97.29l1.27 95.89c0 1.56-1.27 2.8-2.86 2.8h-43.88c-1.59 0-2.86-1.24-2.86-2.8z"/>
						<path id="&lt;Compound Path&gt;" fill-rule="evenodd" class="s6" d="m1576.72 454.78c0-51.05 30.84-84.68 84.25-84.68 53.42 0 83.62 32.69 83.62 83.75 0 51.06-30.2 84.68-83.62 84.68-53.41 0-84.25-32.69-84.25-83.75zm84.25 52.62c23.53 0 34.66-15.88 34.66-52.62 0-36.11-11.45-53.54-34.97-53.54-24.17 0.31-35.3 17.74-35.3 53.86 0 36.11 11.77 52.3 35.61 52.3z"/>
						<path id="&lt;Compound Path&gt;" class="s6" d="m1784.66 531.68l0.95-54.79-0.32-99.94c0-1.55 1.27-2.8 2.86-2.8h40.7q2.86 0 2.86 2.8l-0.95 17.44c11.44-15.57 26.07-23.97 47.06-23.97 22.89 0 39.1 9.65 46.73 30.19 13.99-24.28 30.53-30.19 49.92-30.19 33.07 0 52.14 19.61 52.14 62.26v44.21l0.64 54.79c0 1.56-1.27 2.8-2.86 2.8h-42.92c-1.59 0-2.87-1.24-2.87-2.8l0.96-54.79v-43.59c0-19.3-7.95-28.64-20.99-28.64-13.03 0-28.93 17.12-28.93 49.81v22.42l0.95 54.79c0 1.56-1.27 2.8-2.86 2.8h-42.92c-1.59 0-2.86-1.24-2.86-2.8l0.95-54.79v-43.59c0-19.3-7.63-28.64-20.98-28.64-13.36 0-28.94 17.12-28.94 49.81v22.42l0.96 54.79c0 1.56-1.27 2.8-2.86 2.8h-43.56c-1.59 0-2.86-1.24-2.86-2.8z"/>
						<path id="&lt;Compound Path&gt;" fill-rule="evenodd" class="s6" d="m2065.41 454.78c0-51.05 31.15-84.68 83.3-84.68 53.73 0 83.62 34.87 84.57 90.91 0 1.87-1.27 2.8-2.86 2.8h-117.01c1.91 30.2 14 43.59 36.89 43.59 16.21 0 27.66-7.16 31.79-24.6 0.64-1.55 1.59-2.49 3.18-2.49h40.06c1.91 0 3.18 0.63 2.86 1.87-3.49 29.89-32.11 56.35-78.53 56.35-54.69 0-84.25-35.18-84.25-83.75zm116.36-20.54c-1.9-17.13-11.76-33.31-32.74-33.31-19.4 0-30.53 11.2-34.34 33.31z"/>
					</g>
				</g>
				<g id="&lt;Group&gt;">
					<path id="&lt;Compound Path&gt;" class="s7" d="m1875.73 221.34q1.07 0 1.77 0.69 0.69 0.7 0.69 1.93v17.43q0 2.46-2.46 2.46h-12.34q4.47 3.55 6.94 9.87 2.46 6.33 2.47 14.96 0 13.88-5.56 24.13-5.55 10.26-15.72 15.81-10.18 5.55-23.91 5.55-12.95 0-22.66-5.01-9.72-5.01-14.96-14.11-5.24-9.1-5.24-21.28v-11.26q0-1.08 0.69-1.77 0.69-0.7 1.77-0.7h39.32q1.08 0 1.78 0.7 0.69 0.69 0.69 1.77v14.19q0 1.08-0.69 1.77-0.7 0.7-1.78 0.7h-14.8q0.93 5.55 4.78 8.71 3.86 3.16 9.56 3.16 8.17 0 12.88-6.17 4.7-6.16 4.7-17.11 0-10.8-4.93-17.12-4.94-6.32-13.42-6.32-4.78 0-8.4 2-3.63 2.01-5.78 5.71-1.09 1.85-3.24 1.23l-20.36-5.55q-1.7-0.46-1.69-2.01l0.3-1.23q4.94-11.25 15.35-17.19 10.41-5.94 25.36-5.94z"/>
					<path id="&lt;Compound Path&gt;" class="s7" d="m1842.57 212.4q-11.56 0-17.81-5.55-6.24-5.56-6.24-15.89v-7.71q0-1.07 0.69-1.69 0.69-0.62 1.77-0.62h19.9q1.08 0 1.77 0.62 0.69 0.62 0.69 1.69v3.55q0 2.62 1.47 4.09 1.46 1.46 4.08 1.46h31.31q2.46 0 2.46 2.47v15.11q0 2.47-2.46 2.47z"/>
					<path id="&lt;Compound Path&gt;" class="s7" d="m1933.55 222.57q18.81 0 28.84 9.33 10.02 9.33 10.02 26.91v50.89q0 2.47-2.47 2.46h-23.44q-2.46 0.01-2.46-2.46v-50.89q0-12.49-13.73-12.49h-12.33v63.38q-0.01 1.08-0.62 1.77-0.62 0.69-1.7 0.69h-23.74q-1.09 0-1.7-0.69-0.62-0.69-0.62-1.77v-84.81q0-1.08 0.62-1.7 0.61-0.62 1.7-0.62z"/>
					<path id="&lt;Compound Path&gt;" class="s7" d="m2041.03 166.75q1.08 0 1.77 0.7 0.7 0.69 0.7 1.77v16.5q0 1.08-0.7 1.7-0.69 0.61-1.77 0.61h-24.52q5.7 5.4 7.79 11.03 2.08 5.63 2.08 15.8v94.84q0 1.08-0.62 1.77-0.62 0.69-1.69 0.69h-23.75q-1.08 0-1.7-0.69-0.61-0.69-0.61-1.77v-95.45q-0.01-9.87-2.7-16.04-2.7-6.17-9.18-11.1-1.38-1.08-1.39-3.09v-4.78q0-5.7 3.32-9.09 3.31-3.4 8.71-3.4z"/>
					<path id="&lt;Compound Path&gt;" class="s7" d="m2132.62 221.34q1.08 0 1.78 0.69 0.69 0.7 0.69 1.93v17.43q0 2.46-2.47 2.46h-12.33q4.47 3.55 6.94 9.87 2.46 6.33 2.46 14.96 0 13.88-5.55 24.13-5.55 10.26-15.73 15.81-10.17 5.55-23.9 5.55-12.95 0-22.66-5.01-9.72-5.01-14.96-14.11-5.25-9.1-5.24-21.28v-11.26q0-1.08 0.69-1.77 0.69-0.7 1.77-0.7h39.32q1.08 0 1.78 0.7 0.69 0.69 0.69 1.77v14.19q0 1.08-0.69 1.77-0.7 0.7-1.78 0.7h-14.8q0.92 5.55 4.78 8.71 3.85 3.16 9.56 3.16 8.17 0 12.88-6.17 4.7-6.16 4.7-17.11 0-10.8-4.93-17.12-4.94-6.32-13.42-6.32-4.78 0-8.4 2-3.63 2.01-5.79 5.71-1.08 1.85-3.23 1.23l-20.36-5.55q-1.7-0.46-1.7-2.01l0.31-1.23q4.94-11.25 15.35-17.19 10.4-5.94 25.36-5.94z"/>
					<path id="&lt;Compound Path&gt;" class="s7" d="m2171.64 301.83l-0.47 8.02q-0.15 2.31-2.46 2.31h-19.89q-1.09 0-1.7-0.69-0.62-0.69-0.62-1.77v-84.81q0-2.32 2.32-2.32h23.74q2.32 0 2.31 2.32v44.87q0 9.56 3.78 14.73 3.78 5.16 10.26 5.16 6.16 0 9.02-4.32 2.85-4.31 2.85-13.26v-47.18q0-2.32 2.47-2.32h23.44q2.46 0 2.46 2.32v56.43q0 15.43-8.25 24.14-8.25 8.71-22.74 8.71-17.27 0-26.52-12.34z"/>
				</g>
			</g>
			<path id="&lt;Path&gt;" class="s8" d="m597.7 251.45l-189.19-125.03v79.29l88.85 58.72v201.89h-178.47v-73.44l88.47-58.46 60.13 39.73v-79.29l-24.51-16.2-35.62-23.54-59.99 39.65-93.58 61.85v7.32 102.38 65.11h65.1 178.47 65.11v-65.11-158.86l35.23 23.28z"/>
		</g>
		<g id="&lt;Group&gt;">
			<g id="&lt;Group&gt;">
				<g id="&lt;Group&gt;">
					<path id="&lt;Compound Path&gt;" class="s6" d="m1402.93-1138.55l1.59-106.16-1.59-106.16c0-1.56 1.28-2.8 2.86-2.8h43.88c1.59 0 2.86 1.24 2.86 2.8l-0.95 81.26h96.66l-0.96-81.26c0-1.56 1.27-2.8 2.86-2.8h43.88c1.59 0 2.86 1.24 2.86 2.8l-1.59 106.16 1.59 106.16c0 1.56-1.27 2.81-2.86 2.81h-43.88c-1.59 0-2.86-1.25-2.86-2.81l1.27-95.88h-97.29l1.27 95.88c0 1.56-1.27 2.81-2.86 2.81h-43.88c-1.58 0-2.86-1.25-2.86-2.81z"/>
					<path id="&lt;Compound Path&gt;" class="s6" d="m1641.08-1194.27v-33.63l-0.64-65.37c0-1.56 1.27-2.81 2.86-2.81h42.61c1.59 0 2.86 1.25 2.86 2.81l-0.96 65.37v33c0 17.44 10.81 28.65 25.12 28.65 17.17 0 35.61-15.57 35.61-49.82v-11.83l-0.63-65.37c0-1.56 1.27-2.81 2.86-2.81h43.24c1.59 0 2.86 1.25 2.86 2.81l-0.95 74.09 0.31 80.63c0 1.56-1.27 2.81-2.86 2.81h-40.38q-2.86 0-2.86-2.81l0.96-17.43c-11.13 14.01-29.89 23.97-52.78 23.97-34.66 0-57.23-23.04-57.23-62.26z"/>
					<path id="&lt;Compound Path&gt;" fill-rule="evenodd" class="s6" d="m1842.97-1125.16q0-2.8 2.86-2.8h41.34c1.59 0 2.86 0.93 3.18 2.49 1.91 13.39 13.03 21.17 32.43 21.17 20.66 0 34.97-11.21 34.97-36.42v-18.37c-10.81 14.01-26.71 22.41-47.05 22.41-48.65 0-74.09-35.18-74.09-80.32 0-44.83 27.35-81.26 71.86-81.26 20.35 0 36.25 6.85 47.37 19.62l-0.95-14.63q0-2.81 2.86-2.81h41.97c1.59 0 2.86 1.25 2.86 2.81l-0.63 79.7 0.32 73.47c0 40.47-27.03 66.62-81.08 66.62-42.92 0.62-75.67-16.5-78.22-51.68zm77.9-42.03c23.21 0 35.61-16.19 35.93-48.56 0.32-33.32-12.08-51.68-34.98-52-24.16-0.62-36.56 16.82-36.56 48.88 0 34.56 12.72 51.99 35.61 51.68z"/>
					<path id="&lt;Compound Path&gt;" class="s6" d="m2047.73-1138.55l1.59-106.16-1.59-106.16c0-1.56 1.27-2.8 2.86-2.8h43.88c1.59 0 2.86 1.24 2.86 2.8l-0.95 81.26h96.65l-0.95-81.26c0-1.56 1.27-2.8 2.86-2.8h43.88c1.59 0 2.86 1.24 2.86 2.8l-1.59 106.16 1.59 106.16c0 1.56-1.27 2.81-2.86 2.81h-43.88c-1.59 0-2.86-1.25-2.86-2.81l1.27-95.88h-97.29l1.27 95.88c0 1.56-1.27 2.81-2.86 2.81h-43.88c-1.59 0-2.86-1.25-2.86-2.81z"/>
					<path id="&lt;Compound Path&gt;" fill-rule="evenodd" class="s6" d="m2283.01-1215.44c0-51.06 30.84-84.68 84.26-84.68 53.41 0 83.62 32.69 83.62 83.74 0 51.06-30.21 84.68-83.62 84.68-53.42 0-84.26-32.69-84.26-83.74zm84.26 52.61c23.53 0 34.66-15.88 34.66-52.61 0-36.12-11.45-53.55-34.98-53.55-24.16 0.31-35.29 17.75-35.29 53.86 0 36.11 11.76 52.3 35.61 52.3z"/>
					<path id="&lt;Compound Path&gt;" class="s6" d="m2490.95-1138.55l0.95-54.79-0.31-99.93c0-1.56 1.27-2.81 2.86-2.81h40.7q2.86 0 2.86 2.81l-0.96 17.43c11.45-15.57 26.08-23.97 47.06-23.97 22.89 0 39.11 9.65 46.74 30.2 13.99-24.29 30.52-30.2 49.92-30.2 33.06 0 52.14 19.61 52.14 62.26v44.21l0.63 54.79c0 1.56-1.27 2.81-2.86 2.81h-42.92c-1.59 0-2.86-1.25-2.86-2.81l0.95-54.79v-43.58c0-19.31-7.95-28.65-20.98-28.65-13.04 0-28.94 17.13-28.94 49.82v22.41l0.96 54.79c0 1.56-1.27 2.81-2.86 2.81h-42.93c-1.58 0-2.86-1.25-2.86-2.81l0.96-54.79v-43.58c0-19.31-7.63-28.65-20.99-28.65-13.35 0-28.93 17.13-28.93 49.82v22.41l0.95 54.79c0 1.56-1.27 2.81-2.86 2.81h-43.56c-1.59 0-2.86-1.25-2.86-2.81z"/>
					<path id="&lt;Compound Path&gt;" fill-rule="evenodd" class="s6" d="m2771.7-1215.44c0-51.06 31.16-84.68 83.3-84.68 53.73 0 83.62 34.87 84.58 90.9 0 1.87-1.28 2.81-2.87 2.81h-117c1.91 30.19 13.99 43.58 36.88 43.58 16.22 0 27.66-7.16 31.8-24.59 0.63-1.56 1.59-2.49 3.18-2.49h40.06c1.9 0 3.18 0.62 2.86 1.86-3.5 29.89-32.11 56.35-78.53 56.35-54.69 0-84.26-35.18-84.26-83.74zm116.37-20.55c-1.91-17.12-11.77-33.31-32.75-33.31-19.39 0-30.52 11.21-34.34 33.31z"/>
				</g>
			</g>
			<g id="&lt;Group&gt;">
				<path id="&lt;Compound Path&gt;" class="s7" d="m2582.02-1448.89q1.08 0 1.77 0.7 0.7 0.69 0.7 1.92v17.43q0 2.47-2.47 2.47h-12.34q4.47 3.54 6.94 9.86 2.47 6.33 2.47 14.96 0 13.88-5.55 24.14-5.55 10.25-15.73 15.8-10.18 5.55-23.9 5.55-12.95 0-22.67-5.01-9.71-5.01-14.96-14.11-5.24-9.1-5.24-21.28v-11.26q0-1.07 0.69-1.77 0.7-0.69 1.78-0.69h39.32q1.08 0 1.77 0.69 0.7 0.7 0.7 1.77v14.19q0 1.08-0.7 1.77-0.69 0.7-1.77 0.7h-14.8q0.92 5.55 4.78 8.71 3.85 3.16 9.56 3.16 8.17 0 12.87-6.17 4.71-6.16 4.71-17.11 0-10.79-4.94-17.12-4.94-6.32-13.41-6.32-4.79 0-8.41 2-3.62 2.01-5.78 5.71-1.08 1.85-3.24 1.23l-20.35-5.55q-1.7-0.46-1.7-2l0.31-1.24q4.93-11.25 15.34-17.19 10.41-5.94 25.37-5.94z"/>
				<path id="&lt;Compound Path&gt;" class="s7" d="m2548.87-1457.83q-11.57 0-17.81-5.55-6.25-5.55-6.25-15.88v-7.71q0-1.08 0.7-1.7 0.69-0.62 1.77-0.62h19.89q1.08 0 1.77 0.62 0.7 0.62 0.7 1.7v3.54q0 2.63 1.46 4.09 1.47 1.46 4.09 1.46h31.3q2.47 0 2.47 2.47v15.11q0 2.47-2.47 2.47z"/>
				<path id="&lt;Compound Path&gt;" class="s7" d="m2639.84-1447.65q18.82 0 28.84 9.33 10.02 9.33 10.02 26.9v50.89q0 2.47-2.46 2.47h-23.44q-2.47 0-2.47-2.47v-50.89q0-12.49-13.72-12.49h-12.34v63.38q0 1.08-0.62 1.77-0.62 0.7-1.69 0.7h-23.75q-1.08 0-1.7-0.7-0.61-0.69-0.61-1.77v-84.81q0-1.08 0.61-1.7 0.62-0.61 1.7-0.61z"/>
				<path id="&lt;Compound Path&gt;" class="s7" d="m2747.32-1503.47q1.08 0 1.78 0.69 0.69 0.7 0.69 1.77v16.5q0 1.08-0.69 1.7-0.7 0.62-1.78 0.62h-24.51q5.7 5.39 7.78 11.02 2.08 5.63 2.08 15.81v94.83q0 1.08-0.61 1.77-0.62 0.7-1.7 0.7h-23.75q-1.08 0-1.69-0.7-0.62-0.69-0.62-1.77v-95.45q0-9.87-2.7-16.04-2.7-6.16-9.17-11.1-1.39-1.08-1.39-3.08v-4.78q0-5.71 3.31-9.1 3.32-3.39 8.72-3.39z"/>
				<path id="&lt;Compound Path&gt;" class="s7" d="m2838.92-1448.89q1.08 0 1.77 0.7 0.69 0.69 0.7 1.92v17.43q-0.01 2.47-2.47 2.47h-12.34q4.47 3.54 6.94 9.86 2.47 6.33 2.47 14.96 0 13.88-5.55 24.14-5.55 10.25-15.73 15.8-10.18 5.55-23.9 5.55-12.96 0-22.67-5.01-9.72-5.01-14.96-14.11-5.24-9.1-5.24-21.28v-11.26q0-1.07 0.69-1.77 0.7-0.69 1.78-0.69h39.32q1.08 0 1.77 0.69 0.7 0.7 0.69 1.77v14.19q0.01 1.08-0.69 1.77-0.69 0.7-1.77 0.7h-14.81q0.93 5.55 4.78 8.71 3.86 3.16 9.57 3.16 8.17 0 12.87-6.17 4.7-6.16 4.7-17.11 0-10.79-4.93-17.12-4.94-6.32-13.42-6.32-4.78 0-8.4 2-3.62 2.01-5.78 5.71-1.08 1.85-3.24 1.23l-20.35-5.55q-1.7-0.46-1.7-2l0.31-1.24q4.93-11.25 15.34-17.19 10.41-5.94 25.37-5.94z"/>
				<path id="&lt;Compound Path&gt;" class="s7" d="m2877.93-1368.39l-0.46 8.01q-0.16 2.32-2.47 2.32h-19.89q-1.08 0-1.7-0.7-0.61-0.69-0.61-1.77v-84.81q0-2.31 2.31-2.31h23.75q2.31 0 2.31 2.31v44.87q0 9.56 3.78 14.73 3.77 5.17 10.25 5.16 6.17 0 9.02-4.31 2.85-4.32 2.86-13.26v-47.19q-0.01-2.31 2.46-2.31h23.44q2.47 0 2.47 2.31v56.44q0 15.42-8.25 24.13-8.25 8.71-22.75 8.71-17.27 0-26.52-12.33z"/>
			</g>
		</g>
		<path id="&lt;Path&gt;" class="s8" d="m1304-1418.78l-189.19-125.03-0.01 79.29 88.86 58.72v201.89h-178.47v-73.43l88.47-58.47 60.12 39.73v-79.29l-24.51-16.2-35.61-23.54-59.99 39.65-93.59 61.85v7.32 102.38 65.11h65.11 178.47 65.1v-65.11-158.86l35.24 23.29z"/>
	</g>
</svg>